<mxfile host="app.diagrams.net" agent="Mozilla/5.0 (Windows NT 10.0; Win64; x64) AppleWebKit/537.36 (KHTML, like Gecko) Chrome/136.0.0.0 Safari/537.36" version="27.0.3">
  <diagram name="Page-1" id="cH2RgSweLdJWYKLOs1rj">
    <mxGraphModel dx="1303" dy="659" grid="1" gridSize="10" guides="1" tooltips="1" connect="1" arrows="1" fold="1" page="1" pageScale="1" pageWidth="827" pageHeight="1169" math="0" shadow="0">
      <root>
        <mxCell id="0" />
        <mxCell id="1" parent="0" />
        <mxCell id="XsrV2w-zz-6d203l439v-4" value="UI" style="shape=folder;xSize=90;align=left;spacingLeft=10;align=left;verticalAlign=top;spacingLeft=5;spacingTop=-4;tabWidth=70;tabHeight=20;tabPosition=left;html=1;recursiveResize=0;fillColor=#1ba1e2;fontColor=#ffffff;strokeColor=#006EAF;fontStyle=1" vertex="1" parent="1">
          <mxGeometry x="40" y="120" width="300" height="190" as="geometry" />
        </mxCell>
        <mxCell id="XsrV2w-zz-6d203l439v-22" value="Dashboard" style="swimlane;fontStyle=1;align=center;verticalAlign=middle;childLayout=stackLayout;horizontal=1;startSize=29;horizontalStack=0;resizeParent=1;resizeParentMax=0;resizeLast=0;collapsible=0;marginBottom=0;html=1;whiteSpace=wrap;fillColor=#f8cecc;strokeColor=#b85450;" vertex="1" parent="XsrV2w-zz-6d203l439v-4">
          <mxGeometry x="10" y="36" width="110" height="44" as="geometry" />
        </mxCell>
        <mxCell id="XsrV2w-zz-6d203l439v-25" value="Report Screen" style="swimlane;fontStyle=1;align=center;verticalAlign=middle;childLayout=stackLayout;horizontal=1;startSize=29;horizontalStack=0;resizeParent=1;resizeParentMax=0;resizeLast=0;collapsible=0;marginBottom=0;html=1;whiteSpace=wrap;fillColor=#f8cecc;strokeColor=#b85450;" vertex="1" parent="XsrV2w-zz-6d203l439v-4">
          <mxGeometry x="160" y="36" width="110" height="44" as="geometry" />
        </mxCell>
        <mxCell id="XsrV2w-zz-6d203l439v-26" value="Expense Form" style="swimlane;fontStyle=1;align=center;verticalAlign=middle;childLayout=stackLayout;horizontal=1;startSize=29;horizontalStack=0;resizeParent=1;resizeParentMax=0;resizeLast=0;collapsible=0;marginBottom=0;html=1;whiteSpace=wrap;fillColor=#f8cecc;strokeColor=#b85450;" vertex="1" parent="XsrV2w-zz-6d203l439v-4">
          <mxGeometry x="100" y="110" width="110" height="44" as="geometry" />
        </mxCell>
        <mxCell id="XsrV2w-zz-6d203l439v-9" value="Core Logic" style="shape=folder;xSize=90;align=left;spacingLeft=10;align=left;verticalAlign=top;spacingLeft=5;spacingTop=-4;tabWidth=70;tabHeight=20;tabPosition=left;html=1;recursiveResize=0;fillColor=#1ba1e2;fontColor=#ffffff;strokeColor=#006EAF;fontStyle=1" vertex="1" parent="1">
          <mxGeometry x="547" y="110" width="693" height="230" as="geometry" />
        </mxCell>
        <mxCell id="XsrV2w-zz-6d203l439v-13" value="&lt;font style=&quot;font-size: 9px;&quot;&gt;Expense Management&lt;/font&gt;" style="shape=folder;fontStyle=1;tabWidth=110;tabHeight=30;tabPosition=left;html=1;boundedLbl=1;labelInHeader=1;container=1;collapsible=0;whiteSpace=wrap;fillColor=#b1ddf0;strokeColor=#10739e;" vertex="1" parent="1">
          <mxGeometry x="570" y="160" width="290" height="150" as="geometry" />
        </mxCell>
        <mxCell id="XsrV2w-zz-6d203l439v-14" value="" style="html=1;strokeColor=none;resizeWidth=1;resizeHeight=1;fillColor=none;part=1;connectable=0;allowArrows=0;deletable=0;whiteSpace=wrap;" vertex="1" parent="XsrV2w-zz-6d203l439v-13">
          <mxGeometry width="290.00000000000006" height="105" relative="1" as="geometry">
            <mxPoint y="30" as="offset" />
          </mxGeometry>
        </mxCell>
        <mxCell id="XsrV2w-zz-6d203l439v-31" value="Expense Tracker" style="swimlane;fontStyle=1;align=center;verticalAlign=middle;childLayout=stackLayout;horizontal=1;startSize=29;horizontalStack=0;resizeParent=1;resizeParentMax=0;resizeLast=0;collapsible=0;marginBottom=0;html=1;whiteSpace=wrap;fillColor=#f8cecc;strokeColor=#b85450;" vertex="1" parent="XsrV2w-zz-6d203l439v-13">
          <mxGeometry x="10" y="65" width="110" height="44" as="geometry" />
        </mxCell>
        <mxCell id="XsrV2w-zz-6d203l439v-18" value="&lt;font style=&quot;font-size: 9px;&quot;&gt;Budget Control&lt;/font&gt;" style="shape=folder;fontStyle=1;tabWidth=110;tabHeight=30;tabPosition=left;html=1;boundedLbl=1;labelInHeader=1;container=1;collapsible=0;whiteSpace=wrap;fillColor=#b1ddf0;strokeColor=#10739e;" vertex="1" parent="1">
          <mxGeometry x="920" y="160" width="290" height="150" as="geometry" />
        </mxCell>
        <mxCell id="XsrV2w-zz-6d203l439v-19" value="" style="html=1;strokeColor=none;resizeWidth=1;resizeHeight=1;fillColor=none;part=1;connectable=0;allowArrows=0;deletable=0;whiteSpace=wrap;" vertex="1" parent="XsrV2w-zz-6d203l439v-18">
          <mxGeometry width="290.00000000000006" height="105" relative="1" as="geometry">
            <mxPoint y="30" as="offset" />
          </mxGeometry>
        </mxCell>
        <mxCell id="XsrV2w-zz-6d203l439v-34" value="Budget Calculator" style="swimlane;fontStyle=1;align=center;verticalAlign=middle;childLayout=stackLayout;horizontal=1;startSize=29;horizontalStack=0;resizeParent=1;resizeParentMax=0;resizeLast=0;collapsible=0;marginBottom=0;html=1;whiteSpace=wrap;fillColor=#f8cecc;strokeColor=#b85450;" vertex="1" parent="XsrV2w-zz-6d203l439v-18">
          <mxGeometry x="20" y="53" width="110" height="44" as="geometry" />
        </mxCell>
        <mxCell id="XsrV2w-zz-6d203l439v-35" value="Alert System" style="swimlane;fontStyle=1;align=center;verticalAlign=middle;childLayout=stackLayout;horizontal=1;startSize=29;horizontalStack=0;resizeParent=1;resizeParentMax=0;resizeLast=0;collapsible=0;marginBottom=0;html=1;whiteSpace=wrap;fillColor=#f8cecc;strokeColor=#b85450;" vertex="1" parent="XsrV2w-zz-6d203l439v-18">
          <mxGeometry x="160" y="53" width="110" height="44" as="geometry" />
        </mxCell>
        <mxCell id="XsrV2w-zz-6d203l439v-33" value="Category Manager" style="swimlane;fontStyle=1;align=center;verticalAlign=middle;childLayout=stackLayout;horizontal=1;startSize=29;horizontalStack=0;resizeParent=1;resizeParentMax=0;resizeLast=0;collapsible=0;marginBottom=0;html=1;whiteSpace=wrap;fillColor=#f8cecc;strokeColor=#b85450;" vertex="1" parent="1">
          <mxGeometry x="710" y="225" width="110" height="44" as="geometry" />
        </mxCell>
        <mxCell id="XsrV2w-zz-6d203l439v-36" value="Data" style="shape=folder;xSize=90;align=left;spacingLeft=10;align=left;verticalAlign=top;spacingLeft=5;spacingTop=-4;tabWidth=70;tabHeight=20;tabPosition=left;html=1;recursiveResize=0;fillColor=#1ba1e2;fontColor=#ffffff;strokeColor=#006EAF;fontStyle=1" vertex="1" parent="1">
          <mxGeometry x="570" y="380" width="300" height="110" as="geometry" />
        </mxCell>
        <mxCell id="XsrV2w-zz-6d203l439v-37" value="Expense DB" style="swimlane;fontStyle=1;align=center;verticalAlign=middle;childLayout=stackLayout;horizontal=1;startSize=29;horizontalStack=0;resizeParent=1;resizeParentMax=0;resizeLast=0;collapsible=0;marginBottom=0;html=1;whiteSpace=wrap;fillColor=#f8cecc;strokeColor=#b85450;" vertex="1" parent="XsrV2w-zz-6d203l439v-36">
          <mxGeometry x="10" y="36" width="110" height="44" as="geometry" />
        </mxCell>
        <mxCell id="XsrV2w-zz-6d203l439v-38" value="User Preferences" style="swimlane;fontStyle=1;align=center;verticalAlign=middle;childLayout=stackLayout;horizontal=1;startSize=29;horizontalStack=0;resizeParent=1;resizeParentMax=0;resizeLast=0;collapsible=0;marginBottom=0;html=1;whiteSpace=wrap;fillColor=#f8cecc;strokeColor=#b85450;" vertex="1" parent="XsrV2w-zz-6d203l439v-36">
          <mxGeometry x="160" y="36" width="110" height="44" as="geometry" />
        </mxCell>
        <mxCell id="XsrV2w-zz-6d203l439v-40" value="External" style="shape=folder;xSize=90;align=left;spacingLeft=10;align=left;verticalAlign=top;spacingLeft=5;spacingTop=-4;tabWidth=70;tabHeight=20;tabPosition=left;html=1;recursiveResize=0;fillColor=#1ba1e2;fontColor=#ffffff;strokeColor=#006EAF;fontStyle=1" vertex="1" parent="1">
          <mxGeometry x="920" y="380" width="300" height="110" as="geometry" />
        </mxCell>
        <mxCell id="XsrV2w-zz-6d203l439v-41" value="Bank API" style="swimlane;fontStyle=1;align=center;verticalAlign=middle;childLayout=stackLayout;horizontal=1;startSize=29;horizontalStack=0;resizeParent=1;resizeParentMax=0;resizeLast=0;collapsible=0;marginBottom=0;html=1;whiteSpace=wrap;fillColor=#f8cecc;strokeColor=#b85450;" vertex="1" parent="XsrV2w-zz-6d203l439v-40">
          <mxGeometry x="10" y="36" width="110" height="44" as="geometry" />
        </mxCell>
        <mxCell id="XsrV2w-zz-6d203l439v-42" value="Cloud Backup" style="swimlane;fontStyle=1;align=center;verticalAlign=middle;childLayout=stackLayout;horizontal=1;startSize=29;horizontalStack=0;resizeParent=1;resizeParentMax=0;resizeLast=0;collapsible=0;marginBottom=0;html=1;whiteSpace=wrap;fillColor=#f8cecc;strokeColor=#b85450;" vertex="1" parent="XsrV2w-zz-6d203l439v-40">
          <mxGeometry x="160" y="36" width="110" height="44" as="geometry" />
        </mxCell>
        <mxCell id="XsrV2w-zz-6d203l439v-46" value="UI" style="swimlane;fontStyle=1;align=center;verticalAlign=middle;childLayout=stackLayout;horizontal=1;startSize=29;horizontalStack=0;resizeParent=1;resizeParentMax=0;resizeLast=0;collapsible=0;marginBottom=0;html=1;whiteSpace=wrap;fillColor=#f8cecc;strokeColor=#b85450;" vertex="1" parent="1">
          <mxGeometry x="380" y="150" width="110" height="44" as="geometry" />
        </mxCell>
        <mxCell id="XsrV2w-zz-6d203l439v-47" value="Core Logic" style="swimlane;fontStyle=1;align=center;verticalAlign=middle;childLayout=stackLayout;horizontal=1;startSize=29;horizontalStack=0;resizeParent=1;resizeParentMax=0;resizeLast=0;collapsible=0;marginBottom=0;html=1;whiteSpace=wrap;fillColor=#f8cecc;strokeColor=#b85450;" vertex="1" parent="1">
          <mxGeometry x="380" y="310" width="110" height="44" as="geometry" />
        </mxCell>
        <mxCell id="XsrV2w-zz-6d203l439v-48" value="" style="endArrow=classic;html=1;rounded=0;exitX=0.5;exitY=1;exitDx=0;exitDy=0;entryX=0.5;entryY=0;entryDx=0;entryDy=0;" edge="1" parent="1" source="XsrV2w-zz-6d203l439v-46" target="XsrV2w-zz-6d203l439v-47">
          <mxGeometry width="50" height="50" relative="1" as="geometry">
            <mxPoint x="780" y="390" as="sourcePoint" />
            <mxPoint x="830" y="340" as="targetPoint" />
          </mxGeometry>
        </mxCell>
        <mxCell id="XsrV2w-zz-6d203l439v-49" value="&lt;font style=&quot;font-size: 14px;&quot;&gt;Uses&lt;/font&gt;" style="text;html=1;align=center;verticalAlign=middle;whiteSpace=wrap;rounded=0;" vertex="1" parent="1">
          <mxGeometry x="430" y="250" width="60" height="30" as="geometry" />
        </mxCell>
      </root>
    </mxGraphModel>
  </diagram>
</mxfile>
